<?xml version="1.0" encoding="utf-8"?>
<!-- Generator: Adobe Illustrator 16.0.3, SVG Export Plug-In . SVG Version: 6.00 Build 0)  -->
<!DOCTYPE svg PUBLIC "-//W3C//DTD SVG 1.1//EN" "http://www.w3.org/Graphics/SVG/1.1/DTD/svg11.dtd">
<svg version="1.1" id="Capa_1" xmlns="http://www.w3.org/2000/svg" xmlns:xlink="http://www.w3.org/1999/xlink" x="0px" y="0px"
	 width="131px" height="126px" viewBox="0 0 131 126" enable-background="new 0 0 131 126" xml:space="preserve">
<path fill="#FFFFFF" d="M30.667,7.113c4.203-3.128,8.083-5.022,12.151-5.935l0.014-0.027c2.645-0.591,7.103-0.591,9.385,0
	c3.948,1.021,7.506,3.652,10.044,7.372c1.665,2.471,1.665,3.021,0.067,2.766c-0.685-0.134-3.035-0.295-5.183-0.39
	c-4.888-0.228-7.909,0.43-12.38,2.672c-5.277,2.645-10.178,6.753-19.201,16.139c-7.304,7.56-11.547,14.837-14.018,23.927
	C7.867,67.105,8.981,79.23,15.104,92.885c2.511,5.641,4.498,8.809,7.465,11.965c4.31,4.564,8.808,7.075,16.14,8.969
	c12.42,3.195,27.056,1.303,40.416-5.25c7.814-3.84,13.951-8.271,20.598-14.958c4.752-4.767,7.492-8.124,11.145-13.562
	c5.089-7.693,6.458-11.789,6.688-20.53c0.188-6.163-0.297-10.755-1.734-16.851c-0.358-1.313-0.957-2.871-1.678-3.867
	c-0.719-0.996-2.041-1.41-2.041-1.41c-1.141,1.208-2.309,8.701-2.309,14.77c-0.027,4.001,0,4.662-0.913,4.592
	c-0.913-0.069-7.207-18.191-20.038-29.426c-1.198-1.05-3.15-3.779-3.084-4.208c0.135-0.913,2.612-1.183,5.123-1.667
	c4.565-0.846,18.826,1.545,23.982,3.237c4.27,1.37,12.882,6.673,15.352,11.601c1.182,2.323,0.793,2.511-2.537,1.437
	c-2.404-0.752-7.908-1.826-9.48-1.826c-0.415,0,0.201,0.846,2.123,2.9c4.498,4.793,8.779,11.944,9.531,17.422
	c1.262,9.064-0.213,15.837-1.422,21.181c-1.691,7.331-8.473,17.495-17.832,26.626c-12.782,12.446-22.719,17.817-38.428,20.69
	c-4.605,0.846-14.931,1.034-19.107,0.322c-11.373-1.893-21.551-7.197-30.574-15.938c-6.056-5.936-10.554-12.004-14.34-19.43
	c-11.802-23.08-9.478-43.524,4.753-64.638C16.855,19.173,27.055,9.812,30.667,7.113z"/>
</svg>
